<svg xmlns="http://www.w3.org/2000/svg" width="390" height="844" viewBox="0 0 390 844">
<rect width="390" height="844" fill="#faf8f3"/>
<path d="M0 42H390M0 84H390M0 126H390M0 168H390M0 210H390M0 252H390M0 294H390M0 336H390M0 378H390M0 420H390M0 462H390M0 504H390M0 546H390M0 588H390M0 630H390M0 672H390M0 714H390M0 756H390M0 798H390" stroke="#b08939" stroke-opacity="0.10"/>
<path d="M42 0V844M84 0V844M126 0V844M168 0V844M210 0V844M252 0V844M294 0V844M336 0V844M378 0V844" stroke="#222426" stroke-opacity="0.08"/>
<rect x="20" y="22" width="4" height="34" fill="#b08939"/>
<text x="36" y="46" font-family="sans-serif" font-size="31" font-weight="700" fill="#1d1e20">まいにちサポート</text>
<text x="20" y="84" font-family="sans-serif" font-size="20" fill="#605d56">今日</text>
<text x="20" y="150" font-family="sans-serif" font-size="22" font-weight="700" fill="#1d1e20">使いたい機能を選んでください</text>
<rect x="20" y="168" width="350" height="78" rx="6" fill="#222426" stroke="#b08939" stroke-width="1"/>
<text x="195" y="215" text-anchor="middle" font-family="sans-serif" font-size="24" font-weight="700" fill="#fff">歩数計</text>
<rect x="20" y="260" width="350" height="78" rx="6" fill="#222426" stroke="#b08939" stroke-width="1"/>
<text x="195" y="307" text-anchor="middle" font-family="sans-serif" font-size="24" font-weight="700" fill="#fff">メモ</text>
<rect x="20" y="352" width="350" height="78" rx="6" fill="#222426" stroke="#b08939" stroke-width="1"/>
<text x="195" y="399" text-anchor="middle" font-family="sans-serif" font-size="24" font-weight="700" fill="#fff">予定</text>
<rect x="20" y="444" width="350" height="78" rx="6" fill="#222426" stroke="#b08939" stroke-width="1"/>
<text x="195" y="491" text-anchor="middle" font-family="sans-serif" font-size="24" font-weight="700" fill="#fff">薬アラーム</text>
<rect x="20" y="536" width="350" height="78" rx="6" fill="#222426" stroke="#b08939" stroke-width="1"/>
<text x="195" y="583" text-anchor="middle" font-family="sans-serif" font-size="24" font-weight="700" fill="#fff">緊急連絡</text>
<rect x="20" y="628" width="350" height="78" rx="6" fill="#222426" stroke="#b08939" stroke-width="1"/>
<text x="195" y="675" text-anchor="middle" font-family="sans-serif" font-size="24" font-weight="700" fill="#fff">今日やること</text>
<rect x="20" y="720" width="350" height="78" rx="6" fill="#222426" stroke="#b08939" stroke-width="1"/>
<text x="195" y="767" text-anchor="middle" font-family="sans-serif" font-size="24" font-weight="700" fill="#fff">買い物リスト</text>
<rect x="20" y="812" width="350" height="78" rx="6" fill="#b08939" stroke="#b08939" stroke-width="1"/>
<text x="195" y="859" text-anchor="middle" font-family="sans-serif" font-size="24" font-weight="700" fill="#fff">プレミアム会員</text>
</svg>