<svg xmlns="http://www.w3.org/2000/svg" width="390" height="844" viewBox="0 0 390 844">
<rect width="390" height="844" fill="#faf8f3"/>
<path d="M0 42H390M0 84H390M0 126H390M0 168H390M0 210H390M0 252H390M0 294H390M0 336H390M0 378H390M0 420H390M0 462H390M0 504H390M0 546H390M0 588H390M0 630H390M0 672H390M0 714H390M0 756H390M0 798H390" stroke="#b08939" stroke-opacity="0.10"/>
<path d="M42 0V844M84 0V844M126 0V844M168 0V844M210 0V844M252 0V844M294 0V844M336 0V844M378 0V844" stroke="#222426" stroke-opacity="0.08"/>
<rect x="20" y="22" width="4" height="34" fill="#b08939"/>
<text x="36" y="46" font-family="sans-serif" font-size="31" font-weight="700" fill="#1d1e20">予定</text>
<text x="20" y="84" font-family="sans-serif" font-size="20" fill="#605d56">予定の時間に音でお知らせ</text>
<rect x="20" y="126" width="350" height="56" rx="6" fill="#5c5850" stroke="#b08939" stroke-width="1"/>
<text x="195" y="162" text-anchor="middle" font-family="sans-serif" font-size="20" font-weight="700" fill="#fff">戻る</text>
<rect x="20" y="196" width="350" height="78" rx="6" fill="#222426" stroke="#b08939" stroke-width="1"/>
<text x="195" y="243" text-anchor="middle" font-family="sans-serif" font-size="24" font-weight="700" fill="#fff">予定を追加</text>
<rect x="20" y="288" width="350" height="174" rx="6" fill="#fffffc" stroke="#e0d7c3" stroke-width="1"/>
<text x="36" y="324" font-family="sans-serif" font-size="22" font-weight="700" fill="#1d1e20">病院</text>
<text x="36" y="358" font-family="sans-serif" font-size="22"  fill="#1d1e20">2026/05/28 10:30</text>
<rect x="36" y="404" width="318" height="44" rx="6" fill="#5c5850"/>
<text x="195" y="432" text-anchor="middle" font-family="sans-serif" font-size="20" font-weight="700" fill="#fff">削除</text>
<rect x="20" y="476" width="350" height="174" rx="6" fill="#fffffc" stroke="#e0d7c3" stroke-width="1"/>
<text x="36" y="512" font-family="sans-serif" font-size="22" font-weight="700" fill="#1d1e20">家族へ電話</text>
<text x="36" y="546" font-family="sans-serif" font-size="22"  fill="#1d1e20">2026/05/28 18:00</text>
<rect x="36" y="592" width="318" height="44" rx="6" fill="#5c5850"/>
<text x="195" y="620" text-anchor="middle" font-family="sans-serif" font-size="20" font-weight="700" fill="#fff">削除</text>
</svg>