<svg xmlns="http://www.w3.org/2000/svg" width="390" height="844" viewBox="0 0 390 844">
<rect width="390" height="844" fill="#f8f3e9"/>
<path d="M0 0H390V844H0Z" fill="#f8f3e9"/>
<path d="M0 28H390M0 56H390M0 84H390M0 112H390M0 140H390M0 168H390M0 196H390M0 224H390M0 252H390M0 280H390M0 308H390M0 336H390M0 364H390M0 392H390M0 420H390M0 448H390M0 476H390M0 504H390M0 532H390M0 560H390M0 588H390M0 616H390M0 644H390M0 672H390M0 700H390M0 728H390M0 756H390M0 784H390M0 812H390" stroke="#bf4739" stroke-opacity="0.025"/>
<path d="M28 0V844M56 0V844M84 0V844M112 0V844M140 0V844M168 0V844M196 0V844M224 0V844M252 0V844M280 0V844M308 0V844M336 0V844M364 0V844" stroke="#1f4c7c" stroke-opacity="0.035"/>
<rect x="20" y="18" width="6" height="34" rx="3" fill="#bf4739"/>
<text x="36" y="42" font-family="sans-serif" font-size="32" font-weight="700" fill="#22272e">歩行アラーム</text>
<text x="20" y="76" font-family="sans-serif" font-size="22" fill="#5c626a">歩いている時のやさしいお知らせ</text>
<rect x="20" y="118" width="350" height="56" rx="8" fill="#5c6670"/>
<text x="195" y="155" text-anchor="middle" font-family="sans-serif" font-size="20" font-weight="700" fill="#ffffff">戻る</text>
<rect x="20" y="188" width="350" height="330" rx="8" fill="#fffdf8" stroke="#ded3c3" stroke-width="1"/>
<text x="36" y="222" font-family="sans-serif" font-size="22" font-weight="700" fill="#22272e">今日の歩数</text>
<text x="36" y="262" font-family="sans-serif" font-size="34" font-weight="700" fill="#22272e">3,284 歩</text>
<text x="36" y="300" font-family="sans-serif" font-size="22" fill="#22272e">歩数センサーで自動で数えます</text>
<text x="36" y="342" font-family="sans-serif" font-size="22" font-weight="700" fill="#22272e">7日間の歩数</text>
<line x1="36" y1="468" x2="354" y2="468" stroke="#ded3c3" stroke-width="1"/>
<rect x="36" y="423.06976744186045" width="38.57142857142857" height="44.93023255813954" rx="5" fill="#1f4c7c"/>
<text x="55.285714285714285" y="488" text-anchor="middle" font-family="sans-serif" font-size="14" font-weight="700" fill="#5c626a">月</text>
<rect x="82.57142857142857" y="408.09302325581393" width="38.57142857142857" height="59.90697674418605" rx="5" fill="#1f4c7c"/>
<text x="101.85714285714286" y="488" text-anchor="middle" font-family="sans-serif" font-size="14" font-weight="700" fill="#5c626a">火</text>
<rect x="129.14285714285714" y="427.3488372093023" width="38.57142857142857" height="40.651162790697676" rx="5" fill="#1f4c7c"/>
<text x="148.42857142857142" y="488" text-anchor="middle" font-family="sans-serif" font-size="14" font-weight="700" fill="#5c626a">水</text>
<rect x="175.71428571428572" y="390.9767441860465" width="38.57142857142857" height="77.0232558139535" rx="5" fill="#1f4c7c"/>
<text x="195" y="488" text-anchor="middle" font-family="sans-serif" font-size="14" font-weight="700" fill="#5c626a">木</text>
<rect x="222.28571428571428" y="401.6744186046512" width="38.57142857142857" height="66.32558139534883" rx="5" fill="#1f4c7c"/>
<text x="241.57142857142856" y="488" text-anchor="middle" font-family="sans-serif" font-size="14" font-weight="700" fill="#5c626a">金</text>
<rect x="268.85714285714283" y="376" width="38.57142857142857" height="92" rx="5" fill="#1f4c7c"/>
<text x="288.1428571428571" y="488" text-anchor="middle" font-family="sans-serif" font-size="14" font-weight="700" fill="#5c626a">土</text>
<rect x="315.42857142857144" y="397.7376744186047" width="38.57142857142857" height="70.26232558139534" rx="5" fill="#bf4739"/>
<text x="334.7142857142857" y="488" text-anchor="middle" font-family="sans-serif" font-size="14" font-weight="700" fill="#5c626a">日</text>
<text x="20" y="554" font-family="sans-serif" font-size="22" font-weight="700" fill="#22272e">歩行アラームはオフです</text>
<text x="20" y="594" font-family="sans-serif" font-size="24" font-weight="700" fill="#22272e">お知らせする分数</text>
<rect x="20" y="612" width="350" height="58" rx="8" fill="#ffffff" stroke="#ded3c3" stroke-width="2"/>
<text x="36" y="649" font-family="sans-serif" font-size="22" fill="#5c626a">15</text>
<rect x="20" y="684" width="350" height="88" rx="8" fill="#1f4c7c"/>
<text x="195" y="737" text-anchor="middle" font-family="sans-serif" font-size="26" font-weight="700" fill="#ffffff">開始する</text>
<text x="20" y="808" font-family="sans-serif" font-size="22"  fill="#22272e">通知と振動でお知らせします。</text>
<rect x="20" y="824" width="350" height="160" rx="8" fill="#f5f0e8" stroke="#ded3c3" stroke-width="1"/>
<text x="36" y="856" font-family="sans-serif" font-size="18" fill="#5c626a">Google広告</text>
<text x="36" y="894" font-family="sans-serif" font-size="22" font-weight="700" fill="#22272e">広告なしで使えます</text>
<rect x="36" y="918" width="318" height="50" rx="8" fill="#bf4739"/>
<text x="195" y="950" text-anchor="middle" font-family="sans-serif" font-size="20" font-weight="700" fill="#ffffff">広告を消す</text>
</svg>